/* XPM */
static char *dead_enemy[] = {
"32 32 4 1",
"  c #FF00FF",
". c #000000",
"X c #808080",
"o c #606060",
"                                ",
"                                ",
"                                ",
"                                ",
"          ........              ",
"         .XXXXXXXX.             ",
"        .XXXXXXXXXX.            ",
"        .XXXXXXXXXX.            ",
"        .XXXXXXXXXX.            ",
"        .XXXXXXXXXX.            ",
"        .XXX..XXXXX.            ",
"        .XXX..XXXXX.            ",
"        .XXXXXXXXXX.            ",
"        .XXXXXXXXXX.            ",
"       ..XXXXXXXXXX..           ",
"       .XXXXXXXXXXXX.           ",
"       .XXXXXXXXXXXX.           ",
"       .XXXXXXXXXXXX.           ",
"       .XXXXXXXXXXXX.           ",
"       .XXXXXXXXXXXX.           ",
"       .XXXXXXXXXXXX.           ",
"       .XXXXXXXXXXXX.           ",
"       .XXXXXXXXXXXX.           ",
"       ..............           ",
"      oooooooooooooooo          ",
"      oooooooooooooooo          ",
"                                ",
"                                ",
"                                ",
"                                ",
"                                ",
"                                "
};
