/* XPM */
static char *enemy[] = {
"32 32 16 1",
"  c #FF00FF",
". c black",
"X c #60BE4E",
"o c #347145",
"O c #203B47",
"+ c white",
"@ c #E2A673",
"# c #B57052",
"$ c #9DB2C8",
"% c #8F343F",
"& c #44657B",
"* c #DF414A",
"= c #3F2731",
"- c #724038",
"; c black",
": c black",
"                                ",
"                                ",
"                                ",
"         ...        ...         ",
"       ..XXX..    ..XXX..       ",
"      .XXXXXXo....oXXXXXX.      ",
"     .OoooooXXXXXXXXooooo.+.    ",
"      ..@@#O.oXXXXo.O#@@..$.    ",
"        ..@#...XX...#@.. .$.    ",
"          .@o+.%%.+o@.  .&$.    ",
"           .Oo****oO.   .&&+.   ",
"           ..o%**%o.    .%*%.   ",
"          .ooOo+o+Oo.    .==.   ",
"         .oXXo++OOoXo.  .=%*.   ",
"         .XXXX++oXXXXo.  .-.    ",
"        .oXXoXXXXXXoXXX...#.    ",
"        .-XoOXXXXXXOoXXXo.-..   ",
"       .-#=OOOoXXoOOOooX.OoX.   ",
"       .##-..OoOOoO..Ooo.Ooo.   ",
"       .--=.OoXXXXoO ..O.OOO.   ",
"      .-#=..oXXooXXo.  ...-..   ",
"      .##-.=OOooooOO=.   .-.    ",
"      .XXo.--#-==-#--.   .-.    ",
"      .oo.=##########=.  .#.    ",
"      ....--#------#--.  .#.    ",
"         .-###-==-####.  .#.    ",
"         .-##--..--##-.  .#.    ",
"         .=--==..==--=.  .-.    ",
"        ...XoO....OoX... .#.    ",
"       .X#X#ooo..ooo#X#X..#.    ",
"       .-------..-------..-.    ",
"       .....................    "
};
