/* XPM */
static const char *player_left[] = {
/* columns rows colors chars-per-pixel */
"32 32 20 1 ",
"  c #131313",
". c #391F21",
"X c gray24",
"o c #571C27",
"O c #5D2C28",
"+ c #2A2F4E",
"@ c #424C6E",
"# c #8E251D",
"$ c #ED7614",
"% c #C64524",
"& c #FFA214",
"* c #FFC825",
"= c #E69C69",
"- c #657392",
"; c #0098DC",
": c #92A1B9",
"> c #F6CA9F",
", c #C7CFDD",
"< c white",
"1 c magenta",
/* pixels */
"11111111111:-,,,:-##%%%111111111",
"1111111111:-,-,,,:-##%%%11111111",
"111111111:-,,,::,,:-##%%11111111",
"111111111-: , ,,-:--1#%%%1111111",
"111111111-: , , ,-:-1##%%1111111",
"1111111111:X,X,X,-:-11#%11111111",
"11111111111;==;<---111##11111111",
"1111111111:==>>::-#1111#11111111",
"1111111111:-=>>:-#:,,11#11111111",
"11111111111@%%%##-:,,,1##1111111",
"11111111111@:%###-::,,:1#1111111",
"11111111111@:,:::--:::-111111111",
"1111111:::-1:,,,::----,111111111",
"111111:OO..-:,,::--@:,,-11111111",
"11111:OOO..@:,,::-@o:--,11111111",
"11111:OOO.-@@:::--@oo:,,%1111111",
"11111:OO.+@@@::--@@oo:,#%%1111%%",
"11111:OO--+@-####&&oo--$#%%%%%%%",
"11111:OO-@@.#%%%##,&::,$##%%%%%%",
"11111:O.@@.#%%%%,,,&:,,######%%%",
"111111:....#--,,,<<,*#########11",
"111111-...#-,,,<<<##*#######1111",
"1111111-.:,,,<<<1:###o###1111111",
"11111111-,,<<<1111:-#,1111111111",
"111111111<<<-111111:,,1111111111",
"1111111111--1111111::,:111111111",
"111111111@@-11111111::-111111111",
"11111111---@111111111-:,11111111",
"1111111:::--111111111:,,,1111111",
"11111111111111111111111111111111",
"11111111111111111111111111111111",
"11111111111111111111111111111111"
};
