/* XPM */
static const char *player_attack[] = {
"32 32 20 1 ",
"  c #131313",
". c #FF0000",
"X c gray24",
"o c #FF1C27",
"O c #FF2C28",
"+ c #2A2F4E",
"@ c #424C6E",
"# c #FF251D",
"$ c #ED7614",
"% c #FF4524",
"& c #FFA214",
"* c #FFC825",
"= c #E69C69",
"- c #657392",
"; c #0098DC",
": c #92A1B9",
"> c #F6CA9F",
", c #C7CFDD",
"< c white",
"1 c #FF00FF",
/* pixels */
"111111111%%%##-:,,,-:11111111111",
"11111111%%%##-:,,,-,-:1111111111",
"11111111%%##-:,,::,,,-:111111111",
"1111111%%%#1--:-,, , :-111111111",
"1111111%%##1-:-, , , :-111111111",
"11111111%#11-:-,X,X,X:1111111111",
"11111111##111---<;==;11111111111",
"11111111#1111#-::>>==:1111111111",
"11111111#11,,:#-:>>=-:1111111111",
"1111111##1,,,:-##%%%@11111111111",
"1111111#1:,,::-###%:@11111111111",
"111111111-:::--:::,:@11111111111",
"111111111,----::,,,:1-:::1111111",
"11111111-,,:@--::,,:-..OO:111111",
"11111111,--:o@-::,,:@..OOO:11111",
"1111111%,,:oo@--:::@@-.OOO:11111",
"%%1111%%#,:oo@@--::@@@+.OO:11111",
"%%%%%%%#$--oo&&####-@+--OO:11111",
"%%%%%%##$,::&,##%%%#.@@-OO:11111",
"%%%######,,:&,,,%%%%#.@@.O:11111",
"11#########*,<<,,,--#....:111111",
"1111#######*##<<<,,,-#...-111111",
"1111111###o###:1<<<,,,:.-1111111",
"1111111111,#-:1111<<<,,-11111111",
"1111111111,,:111111-<<<111111111",
"111111111:,::1111111--1111111111",
"111111111-::11111111-@@111111111",
"11111111,:-111111111@---11111111",
"1111111,,,:111111111--:::1111111",
"11111111111111111111111111111111",
"11111111111111111111111111111111",
"11111111111111111111111111111111"
};
