/* XPM */
static const char *player_attack[] = {
"32 32 21 1",
"  c #FF00FF",
". c #131313",
"X c #391F21",
"o c #571C27",
"O c #5D2C28",
"+ c #2A2F4E",
"@ c #424C6E",
"# c #8E251D",
"$ c #ED7614",
"% c #C64524",
"& c #FFA214",
"* c #FFC825",
"= c #E69C69",
"- c #657392",
"; c #0098DC",
": c #92A1B9",
"> c #F6CA9F",
", c #C7CFDD",
"< c white",
"1 c #C0C0C0",
"2 c #808080",
/* pixels */
"         %%%##-:,,,-:           ",
"        %%%##-:,,,-,-:          ",
"        %%##-:,,::,,,-:     2222",
"       %%%#.--:-,, , :-    21111",
"       %%##.-:-, , , :-   211111",
"        %#..-:-,X,X,X:   2111111",
"        ##...---<;==;   21111111",
"        #....#-::>>==: 211111111",
"        #..,,:#-:>>=-:2111111111",
"       ##.,,,:-##%%%@21111111111",
"       #.:,,::-###%:@11111111111",
"        .-:::--:::,:@11111111111",
"        ,----::,,,:.-:::        ",
"       -,,:@--::,,:-..OO:       ",
"       ,--:o@-::,,:@..OOO:      ",
"      %,,:oo@--:::@@-.OOO:      ",
"%%   %%#,:oo@@--::@@@+.OO:      ",
"%%%%%%%#$--oo&&####-@+--OO:     ",
"%%%%%%##$,::&,##%%%#.@@-OO:     ",
"%%%######,,:&,,,%%%%#.@@.O:     ",
"  #########*,<<,,,--#....:      ",
"    #######*##<<<,,,-#...-      ",
"       ###o###:.<<<,,,:.-       ",
"          ,#-:.   <<<,,-        ",
"          ,,:.      -<<<        ",
"         :,::        --         ",
"         -::          -@@       ",
"        ,:-            @---     ",
"       ,,,:             --:::   ",
"                                ",
"                                ",
"                                "
};
