/* XPM */
static const char *wall[] = {
/* columns rows colors chars-per-pixel */
"32 32 43 1 ",
"  c #482413",
". c #4F2913",
"X c #4D3225",
"o c #4F372B",
"O c #543625",
"+ c #563B2B",
"@ c #50382C",
"# c #573D2E",
"$ c #513B31",
"% c #523F35",
"& c #534037",
"* c #594537",
"= c #534138",
"- c #54453C",
"; c #57483F",
": c #5B483B",
"> c #5B4A3D",
", c #5C4A3E",
"< c #5D4D42",
"1 c #5A4F49",
"2 c #5B504A",
"3 c #5C5049",
"4 c #5F544B",
"5 c #5D534C",
"6 c #5E554C",
"7 c #675240",
"8 c #655444",
"9 c #61564B",
"0 c #60574F",
"q c #60584F",
"w c #605750",
"e c #615850",
"r c #665E55",
"t c #695F57",
"y c #665F58",
"u c #666057",
"i c #676159",
"p c #6B675E",
"a c #6C675E",
"s c #6C675F",
"d c #726A63",
"f c #767469",
"g c #86847B",
/* pixels */
"333356-6iiiiiiiiiiiiiiiiiiiiiiii",
"333356-6iiiiiiiiiiiiiiiiiiiiiiii",
"333356-6iiiiiiiiiiiiiiiiiiiiiiii",
"333356-66iiiiiiiiiiiiiiiiiiiiiii",
"&&&&&&&&&<<<<<<<<<<<<<*#+++<>>>:",
"666600weeppppppaaaaaaaaaOaaaaapp",
"122355666yyyyyyyyyyyyyyyOyyyyyyy",
"2233566600yyyyyyyyyyyyyy,yyyyyyy",
"12355660wwyyyyyyyyyyyyyy3yyyyyyy",
"1235566wwwyyyyyyyyyyyyyy3yyyyiyy",
"12335660wwwyyyyyyyyyyyyy3yyyyyyy",
"11335566600yyyyyyyyyyyyy3yyyyyyy",
"11235556667yyyyyyyyyyyyy3yyyyyyy",
"o%&=XXXX@@=<<<<<<<33333333333333",
"666666X66006aaaaaaaaaaaaaaaaaaaa",
"111111X33553yyyyyyyyyyiiiiiiyyyy",
"111111$35555yyyyyyyyyyyyyyyyyyyy",
"111111-355555yyyyyyyyyyyyyyyyyyy",
"111111-355555yyyyyyyyyyyyyyyyyyy",
"111111o335555yyyyyyyyyyyyyyyyyyy",
"111111o333333yyyyyyyyyyyyyyyyyyy",
"111111o2333333yyyyyyyyyyyyyyyyyy",
"              ..9...............",
"40rrrrrrrrrrrrff.fffffffffffffff",
"44rrrrrrrrrrrrff8fffffffffffffff",
"04rrrrrrrrrrrrff8fffffffffffffff",
"00rrrrrrrrrrrrff8fffffffffffffff",
"ttddddddddddddgg8ggggggggggggggg",
";;46660qqqqqqquu8uuuuuuuuuuuuuuu",
";;46600qqqqqqquu8uuuuuuuuuuuuuuu",
";;46600qqqqqqquu.uuuuuuuuuuuuuuu",
"................................"
};
